<?xml version="1.0" encoding="UTF-8"?><svg id="Pattern_Fills_copy" xmlns="http://www.w3.org/2000/svg" viewBox="0 0 1024 1024"><defs><style>.cls-1,.cls-2{fill:#fff;}.cls-2{font-family:ElzaText-Semibold, 'Elza Text';font-size:48px;font-weight:600;}</style></defs><path id="Left_Mini_Flame" class="cls-1" d="M419.96,659.1c-5.92,2.18-11.65,4.52-17.19,6.99-9.31,4.16-18.07,8.68-26.28,13.4-1.61-1.2-3.2-2.44-4.75-3.72-6.44-5.26-12.43-11.09-17.81-17.39-28.41-32.88-39.77-76.07-42.61-117.91-1.46-24.02-4.45-48.11-11.47-71.15-16.63-55.8-54.2-86.07-111.19-96.93,83.6-7.15,134.59,47.62,154.51,124.11,6.81,24.36,8.61,49.72,16,73.9,8.94,32.09,25.65,61.8,52.03,82.09,2.8,2.3,5.79,4.42,8.76,6.61Z"/><path id="Left_Big_Flame" class="cls-1" d="M491.08,627.39v16.1c-18.86,1.48-36.49,4.88-52.86,9.61-7.18-4.24-13.35-10.2-18.53-16.51-31.34-40.31-38.98-97.55-50.39-145.49-13.65-57.88-28.39-116.66-53.75-170.36-12.49-25.11-31.7-59.67-61.93-63.13-20.98-2.46-44.33,7.66-64.96,14.39,12.54-24.56,37.48-43.56,65.88-44.21,44.95-.62,76.36,39.61,95.13,75.7,17.61,33.84,29.09,70.03,39.67,106.37,13.33,46.77,25.31,94.98,39.92,140.82,5.27,16.54,10.39,32.49,17.19,47.91,3.87,8.4,7.75,16.03,13.9,22.29,3.39,3.59,6.42,6.05,11.67,6.88,6.45.96,12.33.35,19.06-.37Z"/><path class="cls-1" d="M648.2,679.89c-.23-.13-.46-.27-.69-.4-8.21-4.72-16.97-9.24-26.28-13.39-5.54-2.48-11.27-4.82-17.19-7-5.9-2.17-11.99-4.18-18.26-6-16.51-4.77-34.31-8.19-53.36-9.65-6.57-.51-13.3-.78-20.17-.8h0c-.08-.01-.17,0-.25,0s-.17-.01-.25-.01h0c-7.04.03-13.94.31-20.67.85-18.86,1.48-36.49,4.88-52.86,9.61-6.27,1.82-12.36,3.83-18.26,6-5.92,2.18-11.65,4.52-17.19,6.99-9.31,4.16-18.07,8.68-26.28,13.4-.23.14-.46.27-.69.4-44.93,26.02-73.12,58.09-82.79,69.65,1.16-.55,75.91-35.96,218.74-35.96s218.11,35.41,219.24,35.96c-9.67-11.55-37.86-43.63-82.79-69.65ZM649,717.78c-86.63-37.36-188.35-36.28-274.63-.28,4.04-1.83,12.1-5.37,16.17-7.11l16.57-6.21c5.63-1.76,11.29-3.44,16.94-5.17l17.2-4.31c4.35-.9,13.06-2.56,17.43-3.34l17.6-2.33,17.7-1.45,17.76-.56,17.76.56,17.7,1.45,17.6,2.33c5.82,1.04,11.64,2.16,17.43,3.34l17.2,4.31c5.65,1.73,11.31,3.4,16.94,5.17l16.57,6.2,8.11,3.51,8.06,3.6-.12.28ZM667.55,712.74l-18.65-7.23-18.98-6.29-19.25-5.4c-77.48-19.8-160.89-15.42-236.08,11.69,0,0-18.65,7.23-18.65,7.23l-.39-.92c94.06-53.89,218.31-53.79,312.39,0,0,0-.39.92-.39.92Z"/><path id="Right_Mini_Flame" class="cls-1" d="M835.34,372.39c-56.99,10.86-94.56,41.13-111.19,96.93-7.02,23.04-10.01,47.13-11.47,71.15-2.84,41.84-14.2,85.03-42.61,117.91-5.38,6.3-11.37,12.13-17.81,17.39-1.55,1.28-3.14,2.52-4.75,3.72-8.21-4.72-16.97-9.24-26.28-13.39-5.54-2.48-11.27-4.82-17.19-7,2.97-2.19,5.96-4.31,8.76-6.61,26.38-20.29,43.09-50,52.03-82.09,7.39-24.18,9.19-49.54,16-73.9,19.92-76.49,70.91-131.26,154.51-124.11Z"/><path id="Right_Big_Falme" class="cls-1" d="M835.34,272c-20.63-6.73-43.98-16.85-64.96-14.39-30.23,3.46-49.44,38.02-61.93,63.13-25.36,53.7-40.1,112.48-53.75,170.36-11.41,47.94-19.05,105.18-50.39,145.49-5.18,6.31-11.35,12.27-18.53,16.51-16.51-4.77-34.31-8.19-53.36-9.65v-16.11c6.94.74,12.95,1.41,19.56.42,5.25-.83,8.28-3.29,11.67-6.88,6.15-6.26,10.03-13.89,13.9-22.29,6.8-15.42,11.92-31.37,17.19-47.91,14.61-45.84,26.59-94.05,39.92-140.82,10.58-36.34,22.06-72.53,39.67-106.37,18.77-36.09,50.18-76.32,95.13-75.7,28.4.65,53.34,19.65,65.88,44.21Z"/><g id="Helmet_Holder"><path class="cls-1" d="M511.75,601.96c-9.4,0-17.43-5.86-20.67-14.11v55.64h41.34v-55.64c-3.24,8.25-11.27,14.11-20.67,14.11ZM522.04,626.44h-20.58v-5.22h20.58v5.22ZM522.04,615.34h-20.58v-5.22h20.58v5.22Z"/></g><text class="cls-2" transform="translate(425.9 758.15) rotate(-6.03)"><tspan x="0" y="0">U</tspan></text><text class="cls-2" transform="translate(460.5 754.52) rotate(-3.21)"><tspan x="0" y="0">R</tspan></text><text class="cls-2" transform="translate(492.2 752.5) rotate(.34)"><tspan x="0" y="0">M</tspan></text><text class="cls-2" transform="translate(535.33 752.93) rotate(3.46)"><tspan x="0" y="0">Z</tspan></text><text class="cls-2" transform="translate(563.04 754.53) rotate(6.1)"><tspan x="0" y="0">D</tspan></text></svg>